<svg xmlns="http://www.w3.org/2000/svg" xmlns:xlink="http://www.w3.org/1999/xlink" id="Layer_1" x="0px" y="0px" viewBox="0 0 383.98 271.41" style="enable-background:new 0 0 383.98 271.41;" xml:space="preserve"><g fill="#ffffff">	<path d="M383.98,131.19c-1.59,4.03-2.83,8.25-4.86,12.05c-2.71,5.08-7.18,8.51-12.22,11.28c-1.1,0.6-2.37,2.33-2.28,3.43  c1.61,19.19-10.14,30.12-23.16,34.88c-1.08,0.39-2.38,1.11-2.88,2.05c-6.09,11.6-6.75,12.33-18.21,18.55  c1.65,2.15,3.4,3.46,6.39,3.33c9.11-0.39,18.24-0.51,27.36-0.66c9.87-0.16,15.21,5.7,14.55,15.59  c-0.83,12.4-4.39,23.76-12.22,33.59c-5.47,6.86-11.5,7.94-19.06,3.38c-10.05-6.06-20.11-12.1-30.09-18.28  c-2.1-1.31-3.78-1.59-6.18-0.59c-40.55,16.97-84.1-13.09-82.76-57.05c0.14-4.63-2.55-6.56-6.71-4.85c-1.5,0.62-2.97,1.37-4.53,1.76  c-3.02,0.76-5.49-0.14-6.8-3.12c-1.21-2.75-0.01-5.76,2.86-7.24c1.64-0.85,3.37-1.5,5.19-2.3c-2.37-7.87-2.04-15.28,2.29-22.17  c4.24-6.75,10.54-10.34,18.29-11.83c7.92-1.52,15.05,0.46,21.87,4.59c5.06-19.36,15.98-33.73,33.4-43.01  c1.54-0.82,3.13-1.58,4.78-2.12c2.92-0.96,5.18,0.15,6.58,2.78c1.36,2.55,0.73,4.88-1.39,6.72c-0.83,0.72-1.89,1.2-2.9,1.68  c-16.99,8.25-26.76,21.93-30.2,40.31c-0.24,1.26,0.27,2.92,0.97,4.05c1.24,2,2.89,3.74,4.69,6c1.16-2.01,2.32-3.82,3.28-5.73  c6.05-12.04,13.91-22.49,25.6-29.67c8.76-5.39,18.2-8.72,28.48-9.5c9.81-0.75,16.39-8.81,15.36-19.33  c-6.86,1.84-13.67,3.67-20.48,5.5c-1.08,0.29-2.16,0.65-3.26,0.87c-3.16,0.61-5.43-0.69-6.6-3.58c-1.14-2.8,0.28-6.15,3.29-7.02  c10.19-2.94,20.41-5.78,30.7-8.34c3.23-0.8,5.43,1.24,6.4,4.4c2.55,8.26,1.92,16.26-1.98,23.99c-0.5,0.98-1.04,1.94-1.94,3.64  c3.93,0,7.34-0.05,10.76,0.01c6.75,0.12,13.49,0.44,20.24,0.41c3.36-0.02,5.77,1.14,7.37,4.05  C383.98,126.19,383.98,128.69,383.98,131.19z M372.27,130.68c-1.95,0-3.29,0.02-4.64,0c-11.37-0.2-22.73-0.36-34.1-0.62  c-23.01-0.53-40.17,9.14-51.27,29.35c-9.37,17.06-18.68,34.16-28.04,51.23c-0.66,1.2-1.28,2.48-2.19,3.47  c-1.91,2.07-4.31,2.56-6.78,1.1c-2.55-1.51-3.56-3.79-2.51-6.7c0.38-1.05,0.96-2.03,1.49-3.01c4.96-9.09,9.95-18.17,14.86-27.29  c0.55-1.02,1.29-2.66,0.86-3.36c-5.22-8.6-10.85-17.01-21.01-20.4c-7.59-2.53-16.62,1.33-19.57,7.81  c-3.22,7.07-0.41,14.51,7.44,19.19c3.08,1.84,3.64,4.41,3.25,7.66c-3.45,29.02,18.01,53.77,47.17,54.14  c14.34,0.18,26.54-5.14,36.31-15.75c1.05-1.14,2.92-2.61,0.7-3.91c-4.57-2.66-8.48-6.72-14.95-5c-4.98,1.33-10.4,1.07-15.64,1.35  c-4.08,0.22-6.69-1.88-6.88-5.21c-0.18-3.27,2.2-5.58,6.3-5.95c4.6-0.41,9.23-0.54,13.81-1.12c8.33-1.06,16.53-2.73,23.76-7.34  c3.66-2.33,6.94-5.16,7.14-9.92c0.16-3.87,2.07-5.83,5.68-6.82c2.63-0.72,5.23-1.72,7.67-2.94c10.11-5.03,14.18-13.89,11.61-24.9  c-1.5-6.43-0.75-7.81,5.5-9.9C365.37,143.46,370.2,138.95,372.27,130.68z M355.67,243.5c0.63-4.61,1.19-8.77,1.77-12.92  c0.35-2.49-0.77-3.3-3.19-3.27c-9.22,0.08-18.45,0.03-26.08,0.03c-4.92,5.7-8.79,10.17-12.8,14.81  c8.12,4.93,16.51,10.02,24.9,15.11c6.05,3.66,6.55,3.52,10-2.77c0.11-0.2,0.09-0.47,0.17-0.93c-4.93-2.24-9.9-4.51-14.88-6.77  c-4.35-1.98-5.9-4.77-4.45-8.05c1.45-3.31,4.65-4.14,8.92-2.24C345.02,238.7,350,240.96,355.67,243.5z"></path>	<path d="M11.73,130.68c1.99,8.45,7.07,12.85,14.27,15.31c1.61,0.55,3.58,1.13,4.49,2.36c0.97,1.31,1.46,3.52,1.15,5.13  c-3.07,15.87,1.86,24.78,17.03,29.48c4.64,1.44,7.34,3.23,7.92,8.75c0.31,2.97,3.6,6.23,6.36,8.21c7.18,5.16,15.77,6.68,24.36,7.75  c4.46,0.55,8.96,0.69,13.44,1.08c4.13,0.36,6.53,2.6,6.41,5.86c-0.12,3.45-2.82,5.59-7.16,5.29c-5.97-0.41-11.95-0.94-17.89-1.66  c-5.53-0.67-8.76,3.54-12.87,5.85c-0.19,0.11,0.5,2.72,1.35,3.61c13.82,14.34,30.42,18.76,49.61,13.59  c1.08-0.29,2.11-0.78,3.2-1.06c3.19-0.83,6.03,0.5,7.07,3.26c1.12,2.99-0.07,6.44-3.42,7.21c-7.37,1.68-14.91,3.86-22.34,3.68  c-7.42-0.17-14.83-2.78-22.15-4.7c-2.11-0.55-3.61-0.71-5.52,0.46c-10.09,6.23-20.26,12.35-30.42,18.47  c-7.73,4.65-13.73,3.52-19.32-3.57c-8.29-10.53-11.85-22.71-12.09-35.91c-0.14-7.63,5.57-13.08,13.42-13.02  c9.25,0.07,18.49,0.52,27.74,0.48c2.44-0.01,4.88-1.19,7.31-1.84c-0.04-0.43-0.09-0.86-0.13-1.29c-1.9-1.07-3.84-2.08-5.7-3.22  c-5.47-3.36-9.64-7.8-12.1-13.86c-0.6-1.47-2.12-3-3.59-3.6c-10.17-4.19-18.32-10.44-21.42-21.44c-1.13-4-1.2-8.36-1.25-12.57  c-0.03-2.29-0.51-3.43-2.65-4.54c-10.8-5.62-16.24-14.81-16.84-26.85c-0.28-5.57,1.66-7.53,7.16-7.67  c8.99-0.23,17.99-0.37,26.99-0.56c1.2-0.03,2.39-0.12,4.05-0.2c-3.75-6.24-5.82-12.58-5.22-19.5c0.24-2.71,0.73-5.45,1.52-8.05  c1.09-3.59,3.68-4.97,7.25-4.01c16.15,4.34,32.46,8.16,48.35,13.3c21.44,6.93,35.36,21.79,41.96,43.4c0.29,0.95,0.59,1.9,0.9,2.85  c0.03,0.09,0.17,0.14,0.41,0.33c11.92-6.85,23.87-6.96,34.81,1.84c8.83,7.1,10.49,16.83,7.41,27.8c1.55,0.71,3.11,1.4,4.64,2.15  c3.33,1.63,4.63,4.68,3.32,7.66c-1.23,2.8-4.22,3.85-7.66,2.66c-1.06-0.37-2.08-0.85-3.12-1.28c-4.72-1.97-7.28-0.22-7.2,4.84  c0.24,15.33-4.34,29.01-14.25,40.79c-1.02,1.21-2.41,2.93-3.65,2.94c-2.12,0.02-4.81-0.53-6.25-1.9c-2.3-2.19-1.48-5.07,0.57-7.38  c5.74-6.51,9.83-13.95,11.17-22.52c0.82-5.24,0.74-10.66,0.61-15.99c-0.08-3.3,0.44-5.75,3.53-7.54  c7.72-4.47,10.51-12.26,7.14-19.3c-3.16-6.6-12.87-10.35-20.42-7.37c-9.47,3.74-15,11.73-20,20.04c-0.44,0.73,0.21,2.37,0.75,3.37  c4.91,9.12,9.91,18.2,14.87,27.29c0.54,0.98,1.1,1.97,1.5,3.01c1.12,2.89,0.15,5.22-2.37,6.75c-2.59,1.58-5.08,1.03-7.05-1.23  c-0.81-0.92-1.36-2.09-1.96-3.18c-9.35-17.08-18.66-34.19-28.04-51.26c-11.18-20.35-28.44-30.05-51.63-29.41  c-11.24,0.31-22.49,0.42-33.74,0.62C15.03,130.7,13.67,130.68,11.73,130.68z M117.13,164.08c1.92-2.4,3.72-4.44,5.25-6.67  c0.55-0.8,0.76-2.12,0.58-3.1c-3.82-20.49-14.94-35.44-34.78-42.37c-14.2-4.96-28.99-8.23-43.54-12.26  c-1.53,8.77,5.08,18.69,12.67,19.23c24.56,1.74,42.49,13.69,54.29,35.13C113.4,157.3,115.19,160.57,117.13,164.08z M68.32,242.32  c-3.61-4.66-6.98-9.07-10.43-13.42c-0.38-0.48-1.16-0.91-1.77-0.92c-9.1-0.26-18.2-0.49-27.3-0.54c-0.78,0-2.28,1.46-2.22,2.14  c0.34,4.51,1.02,8.99,1.65,13.95c5.83-2.63,10.8-4.89,15.8-7.11c4.19-1.86,7.48-0.93,8.86,2.42c1.31,3.19-0.19,5.97-4.28,7.85  c-5.06,2.33-10.15,4.61-15.58,7.08c1.4,1.89,2.39,3.68,3.83,4.98c0.72,0.65,2.58,0.97,3.37,0.5  C49.8,253.64,59.24,247.84,68.32,242.32z"></path>	<path d="M191.99,37.63c10.26-7.93,21.32-10.26,33.32-5.73c17.1,6.46,26.23,25.66,20.95,44.08c-4.97,17.33-16.13,30.3-30.31,40.73  c-5.89,4.33-12.57,7.63-18.95,11.28c-3.27,1.87-6.6,1.65-10.04,0.03c-9.79-4.6-18.83-10.31-26.8-17.65  c-3.25-2.99-3.8-6.24-1.59-8.81c2.33-2.71,5.51-2.2,9.22,0.46c7.17,5.15,14.59,9.97,22.01,14.76c0.95,0.61,2.76,0.79,3.76,0.3  c17.59-8.51,31.89-20.49,40-38.78c3.09-6.96,4.08-14.11,1.44-21.49c-6.07-16.97-25.41-21.19-37.93-8.26  c-3.59,3.71-6.42,3.8-9.86,0.32c-7.78-7.89-16.65-10.03-25.47-6.15c-8.95,3.94-15.08,13.62-14.07,23.95  c0.5,5.08,2.51,10.1,4.33,14.95c1.65,4.39,1.25,7.49-2.04,9.02c-3.14,1.46-6.07,0.1-8.07-3.87c-6.19-12.32-8.15-24.87-1.78-37.77  c9.58-19.4,32.63-25.2,50.13-12.66C190.74,36.72,191.24,37.09,191.99,37.63z"></path>	<path d="M254.1,14.11c1.15,0.92,3.31,1.85,3.91,3.38c0.65,1.68,0.51,4.37-0.47,5.83c-1.78,2.64-4.14,5.17-6.83,6.83  c-1.62,1-4.91,1.11-6.36,0.09c-1.44-1.02-2.74-4.84-1.98-5.91c2.53-3.56,6-6.45,9.18-9.54C251.93,14.41,252.72,14.45,254.1,14.11z"></path>	<path d="M142.16,25.67c-0.01,4.5-4.81,7.47-8.25,4.98c-2.98-2.16-5.76-4.9-7.81-7.94c-0.93-1.38-0.64-4.67,0.44-6.03  c1.07-1.35,4.66-2.5,5.7-1.75c3.53,2.58,6.45,6.01,9.53,9.19C142.13,24.51,142.07,25.31,142.16,25.67z"></path>	<path d="M152.49,19.41c-0.86-0.86-2.96-2.15-3.84-4.01c-1.24-2.66-1.71-5.71-2.27-8.64c-0.59-3.1,1.26-5.83,4.16-6.58  c2.82-0.74,5.74,0.87,6.68,3.96c0.87,2.85,1.59,5.77,2.08,8.71C159.91,16.4,157.31,19.38,152.49,19.41z"></path>	<path d="M237.81,6.13c-0.82,3.1-1.45,6.69-2.75,10.03c-1.05,2.71-3.55,3.86-6.47,2.99c-2.86-0.86-4.41-3.03-3.98-5.97  c0.47-3.19,1.27-6.36,2.3-9.42c0.94-2.81,3.23-4.16,6.18-3.62C236.03,0.68,237.47,2.75,237.81,6.13z"></path>	<path d="M273.39,42.35c-0.8,0.85-2.03,3-3.87,3.89c-2.63,1.27-5.68,1.76-8.6,2.33c-3.19,0.63-5.96-1.13-6.67-3.95  c-0.79-3.13,0.76-5.92,4.09-6.93c2.73-0.83,5.52-1.52,8.33-2.01C270.27,35.05,273.23,37.48,273.39,42.35z"></path>	<path d="M129.89,41.97c-0.11,4.54-2.65,7.12-5.89,6.65c-3.42-0.49-6.85-1.33-10.09-2.52c-2.78-1.02-3.78-3.52-3.03-6.43  c0.76-2.96,2.97-4.46,5.85-4.05c3.3,0.47,6.67,1.2,9.69,2.55C128.12,38.93,129.18,41.15,129.89,41.97z"></path>	<path d="M149.61,171.8c-3.03-0.02-5.5-2.42-5.57-5.4c-0.08-3.07,2.6-5.79,5.67-5.76c3.11,0.03,5.65,2.72,5.53,5.86  C155.13,169.52,152.68,171.82,149.61,171.8z"></path>	<path d="M234.25,160.62c3.07,0,5.74,2.73,5.66,5.78c-0.08,2.98-2.56,5.38-5.58,5.39c-3.19,0.01-5.71-2.55-5.62-5.7  C228.8,163.11,231.32,160.62,234.25,160.62z"></path></g></svg>